<svg xmlns="http://www.w3.org/2000/svg" xmlns:xlink="http://www.w3.org/1999/xlink" width="90" height="72"><defs><linearGradient x1="418.154" y1="-41.365" x2="419.374" y2="-41.365" id="a" gradientUnits="userSpaceOnUse" gradientTransform="scale(1 -1) rotate(-51.671 194.894 365.408)"><stop offset="0" stop-color="#1e251d"/><stop offset=".305" stop-color="#0a1312"/><stop offset=".554" stop-color="#0a1312"/><stop offset=".796" stop-color="#101616"/><stop offset=".983" stop-color="#0a1312"/></linearGradient><linearGradient x1="139.284" y1="-348.971" x2="139.256" y2="-350.32" id="u" gradientUnits="userSpaceOnUse" gradientTransform="scale(1 -1) rotate(52.402 -203.997 -281.687)"><stop offset="0" stop-color="#dbe6e8"/><stop offset="1" stop-color="#b3bab3"/></linearGradient><linearGradient x1="140.426" y1="-352.047" x2="140.426" y2="-352.97" id="t" gradientUnits="userSpaceOnUse" gradientTransform="scale(1 -1) rotate(52.402 -203.997 -281.687)"><stop offset="0" stop-color="#4f5661"/><stop offset=".012" stop-color="#555b66"/><stop offset=".148" stop-color="#8f959a"/><stop offset=".274" stop-color="#bec2c4"/><stop offset=".384" stop-color="#dfe2e1"/><stop offset=".476" stop-color="#f4f6f3"/><stop offset=".537" stop-color="#fbfdfa"/><stop offset="1" stop-color="#a3a39c"/></linearGradient><linearGradient x1="139.966" y1="-351.728" x2="139.966" y2="-353.395" id="s" gradientUnits="userSpaceOnUse" gradientTransform="scale(1 -1) rotate(52.402 -203.997 -281.687)"><stop offset="0" stop-color="#3b4159"/><stop offset=".426" stop-color="#fbfdfa"/><stop offset=".634" stop-color="#fbfdfa"/><stop offset="1" stop-color="#3b413d"/></linearGradient><linearGradient x1="144.201" y1="-353.076" x2="144.201" y2="-354.989" id="p" gradientUnits="userSpaceOnUse" gradientTransform="scale(1 -1) rotate(52.402 -203.997 -281.687)"><stop offset="0" stop-color="#1e2524"/><stop offset=".282" stop-color="#4f5654"/><stop offset=".285" stop-color="#555b59"/><stop offset=".322" stop-color="#8f9592"/><stop offset=".355" stop-color="#bec2bf"/><stop offset=".385" stop-color="#dfe2df"/><stop offset=".41" stop-color="#f4f6f3"/><stop offset=".426" stop-color="#fbfdfa"/><stop offset=".634" stop-color="#fbfdfa"/><stop offset=".705"/></linearGradient><linearGradient x1="144.201" y1="-353.076" x2="144.201" y2="-354.989" id="G" xlink:href="#p" gradientUnits="userSpaceOnUse" gradientTransform="scale(1 -1) rotate(52.402 -203.997 -281.687)"/><linearGradient x1="142.662" y1="-363.589" x2="143.698" y2="-363.589" id="o" gradientUnits="userSpaceOnUse" gradientTransform="scale(1 -1) rotate(52.402 -203.997 -281.687)"><stop offset="0" stop-color="#b2b2b2"/><stop offset=".168" stop-color="#f2f2f2"/></linearGradient><linearGradient x1="139.972" y1="-363.585" x2="141.139" y2="-363.585" id="m" gradientUnits="userSpaceOnUse" gradientTransform="scale(1 -1) rotate(52.402 -203.997 -281.687)"><stop offset="0" stop-color="#7e8482"/><stop offset=".218" stop-color="#fbfdfa"/><stop offset=".564" stop-color="#b2b2b2"/><stop offset="1" stop-color="#f2f2f2"/></linearGradient><linearGradient x1="143.275" y1="-363.584" x2="144.442" y2="-363.584" id="n" gradientUnits="userSpaceOnUse" gradientTransform="scale(1 -1) rotate(52.402 -203.997 -281.687)"><stop offset="0" stop-color="#7e8482"/><stop offset=".218" stop-color="#fbfdfa"/><stop offset=".564" stop-color="#b2b2b2"/><stop offset="1" stop-color="#f2f2f2"/></linearGradient><linearGradient x1="139.976" y1="-363.564" x2="144.615" y2="-363.564" id="l" gradientUnits="userSpaceOnUse" gradientTransform="scale(1 -1) rotate(52.402 -203.997 -281.687)"><stop offset="0" stop-color="#7e8482"/><stop offset=".242" stop-color="#454e53"/><stop offset=".312" stop-color="#fbfdfa"/><stop offset=".591" stop-color="#fbfdfa"/><stop offset=".685" stop-color="#454e53"/><stop offset=".899" stop-color="#7e8482"/><stop offset=".987" stop-color="#a3a39c"/></linearGradient><linearGradient x1="139.621" y1="-371.626" x2="140.38" y2="-371.626" id="h" gradientUnits="userSpaceOnUse" gradientTransform="scale(1 -1) rotate(52.402 -203.997 -281.687)"><stop offset="0" stop-color="#1e251d"/><stop offset=".305" stop-color="#0a1312"/><stop offset=".554" stop-color="#0a1312"/><stop offset=".789" stop-color="#101616"/><stop offset=".983" stop-color="#0a1312"/></linearGradient><linearGradient x1="140.508" y1="-371.785" x2="141.818" y2="-371.785" id="i" gradientUnits="userSpaceOnUse" gradientTransform="scale(1 -1) rotate(52.402 -203.997 -281.687)"><stop offset="0" stop-color="#1e251d"/><stop offset=".305" stop-color="#0a1312"/><stop offset=".554" stop-color="#0a1312"/><stop offset=".789" stop-color="#101616"/><stop offset=".983" stop-color="#0a1312"/></linearGradient><linearGradient x1="142.428" y1="-371.815" x2="143.88" y2="-371.815" id="j" gradientUnits="userSpaceOnUse" gradientTransform="scale(1 -1) rotate(52.402 -203.997 -281.687)"><stop offset="0" stop-color="#1e251d"/><stop offset=".305" stop-color="#0a1312"/><stop offset=".554" stop-color="#0a1312"/><stop offset=".789" stop-color="#101616"/><stop offset=".983" stop-color="#0a1312"/></linearGradient><linearGradient x1="311.547" y1="-371.733" x2="312.367" y2="-371.733" id="k" gradientUnits="userSpaceOnUse" gradientTransform="rotate(127.597 89.636 -212.71)"><stop offset="0" stop-color="#1e251d"/><stop offset=".305" stop-color="#0a1312"/><stop offset=".554" stop-color="#0a1312"/><stop offset=".789" stop-color="#101616"/><stop offset=".983" stop-color="#0a1312"/></linearGradient><linearGradient x1="140.255" y1="-376.595" x2="144.066" y2="-376.595" id="f" gradientUnits="userSpaceOnUse" gradientTransform="scale(1 -1) rotate(52.402 -203.997 -281.687)"><stop offset=".06" stop-color="#a8aea4"/><stop offset=".161" stop-color="#1e2521"/><stop offset=".282" stop-color="#4f5654"/><stop offset=".287" stop-color="#474e4c"/><stop offset=".308" stop-color="#262e2d"/><stop offset=".327" stop-color="#111a19"/><stop offset=".339" stop-color="#0a1312"/><stop offset=".386" stop-color="#0a1312"/><stop offset=".416" stop-color="#4a5050"/><stop offset=".456" stop-color="#fff"/><stop offset=".52" stop-color="#fff"/><stop offset=".557" stop-color="#4a5050"/><stop offset=".668" stop-color="#101616"/><stop offset=".755" stop-color="#4a5259"/><stop offset=".832" stop-color="#101616"/></linearGradient><linearGradient x1="140.255" y1="-376.595" x2="144.066" y2="-376.595" id="E" xlink:href="#f" gradientUnits="userSpaceOnUse" gradientTransform="scale(1 -1) rotate(52.402 -203.997 -281.687)"/><linearGradient x1="140.748" y1="-349.306" x2="143.739" y2="-349.306" id="B" xlink:href="#c" gradientUnits="userSpaceOnUse" gradientTransform="scale(1 -1) rotate(52.402 -203.997 -281.687)"/><linearGradient x1="140.741" y1="-348.452" x2="143.968" y2="-348.452" id="C" xlink:href="#d" gradientUnits="userSpaceOnUse" gradientTransform="scale(1 -1) rotate(52.402 -203.997 -281.687)"/><linearGradient x1="140.743" y1="-350.12" x2="143.968" y2="-350.12" id="D" xlink:href="#e" gradientUnits="userSpaceOnUse" gradientTransform="scale(1 -1) rotate(52.402 -203.997 -281.687)"/><linearGradient x1="140.748" y1="-349.306" x2="143.739" y2="-349.306" id="c" gradientUnits="userSpaceOnUse" gradientTransform="scale(1 -1) rotate(52.402 -203.997 -281.687)"><stop offset=".097" stop-color="#a8aeab"/><stop offset=".154" stop-color="#1e2524"/><stop offset=".282" stop-color="#4f5654"/><stop offset=".285" stop-color="#555b59"/><stop offset=".322" stop-color="#8f9592"/><stop offset=".355" stop-color="#bec2bf"/><stop offset=".385" stop-color="#dfe2df"/><stop offset=".41" stop-color="#f4f6f3"/><stop offset=".426" stop-color="#fbfdfa"/><stop offset=".634" stop-color="#fbfdfa"/><stop offset=".705"/><stop offset=".812" stop-color="#454e53"/><stop offset=".869"/><stop offset=".909" stop-color="#a3a39c"/></linearGradient><linearGradient x1="140.741" y1="-348.452" x2="143.968" y2="-348.452" id="d" gradientUnits="userSpaceOnUse" gradientTransform="scale(1 -1) rotate(52.402 -203.997 -281.687)"><stop offset=".097" stop-color="#a8aeab"/><stop offset=".154" stop-color="#1e2524"/><stop offset=".282" stop-color="#4f5654"/><stop offset=".285" stop-color="#555b59"/><stop offset=".322" stop-color="#8f9592"/><stop offset=".355" stop-color="#bec2bf"/><stop offset=".385" stop-color="#dfe2df"/><stop offset=".41" stop-color="#f4f6f3"/><stop offset=".426" stop-color="#fbfdfa"/><stop offset=".634" stop-color="#fbfdfa"/><stop offset=".705"/><stop offset=".812" stop-color="#454e53"/><stop offset=".869"/><stop offset=".909" stop-color="#a3a39c"/></linearGradient><linearGradient x1="140.743" y1="-350.12" x2="143.968" y2="-350.12" id="e" gradientUnits="userSpaceOnUse" gradientTransform="scale(1 -1) rotate(52.402 -203.997 -281.687)"><stop offset=".097" stop-color="#a8aeab"/><stop offset=".154" stop-color="#1e2524"/><stop offset=".282" stop-color="#4f5654"/><stop offset=".285" stop-color="#555b59"/><stop offset=".322" stop-color="#8f9592"/><stop offset=".355" stop-color="#bec2bf"/><stop offset=".385" stop-color="#dfe2df"/><stop offset=".41" stop-color="#f4f6f3"/><stop offset=".426" stop-color="#fbfdfa"/><stop offset=".634" stop-color="#fbfdfa"/><stop offset=".705"/><stop offset=".812" stop-color="#454e53"/><stop offset=".869"/><stop offset=".909" stop-color="#a3a39c"/></linearGradient><linearGradient x1="140.864" y1="-350.8" x2="143.864" y2="-350.8" id="A" xlink:href="#b" gradientUnits="userSpaceOnUse" gradientTransform="scale(1 -1) rotate(52.402 -203.997 -281.687)"/><linearGradient x1="140.864" y1="-350.8" x2="143.864" y2="-350.8" id="b" gradientUnits="userSpaceOnUse" gradientTransform="scale(1 -1) rotate(52.402 -203.997 -281.687)"><stop offset="0" stop-color="#3b413d"/><stop offset=".154" stop-color="#0a1312"/><stop offset=".423" stop-color="#0a1312"/><stop offset=".493" stop-color="#4a5050"/><stop offset=".638" stop-color="#494f4f"/><stop offset=".708" stop-color="#232927"/><stop offset=".859" stop-color="#0d1311"/><stop offset="1" stop-color="#2d332f"/></linearGradient><linearGradient x1="139.971" y1="-361.778" x2="144.52" y2="-361.778" id="g" gradientUnits="userSpaceOnUse" gradientTransform="scale(1 -1) rotate(52.402 -203.997 -281.687)"><stop offset=".097" stop-color="#a8aeab"/><stop offset=".154" stop-color="#1e2524"/><stop offset=".282" stop-color="#4f5654"/><stop offset=".285" stop-color="#555b59"/><stop offset=".322" stop-color="#8f9592"/><stop offset=".355" stop-color="#bec2bf"/><stop offset=".385" stop-color="#dfe2df"/><stop offset=".41" stop-color="#f4f6f3"/><stop offset=".426" stop-color="#fbfdfa"/><stop offset=".634" stop-color="#fbfdfa"/><stop offset=".705"/><stop offset=".812" stop-color="#454e53"/><stop offset=".869"/><stop offset=".909" stop-color="#a3a39c"/></linearGradient><linearGradient x1="139.971" y1="-361.778" x2="144.52" y2="-361.778" id="F" xlink:href="#g" gradientUnits="userSpaceOnUse" gradientTransform="scale(1 -1) rotate(52.402 -203.997 -281.687)"/><radialGradient cx="143.079" cy="-351.882" r=".21" id="H" xlink:href="#q" gradientUnits="userSpaceOnUse" gradientTransform="scale(1 -1) rotate(52.402 -203.997 -281.687)"/><radialGradient cx="143.041" cy="-352.379" r=".164" id="I" xlink:href="#r" gradientUnits="userSpaceOnUse" gradientTransform="scale(1 -1) rotate(52.402 -203.997 -281.687)"/><radialGradient cx="143.079" cy="-351.882" r=".21" id="q" gradientUnits="userSpaceOnUse" gradientTransform="scale(1 -1) rotate(52.402 -203.997 -281.687)"><stop offset="0" stop-color="#b3bab3"/><stop offset="1" stop-color="#262626"/></radialGradient><radialGradient cx="143.041" cy="-352.379" r=".164" id="r" gradientUnits="userSpaceOnUse" gradientTransform="scale(1 -1) rotate(52.402 -203.997 -281.687)"><stop offset="0" stop-color="#b3bab3"/><stop offset="1" stop-color="#262626"/></radialGradient><filter color-interpolation-filters="sRGB" id="v"><feGaussianBlur stdDeviation="1.5" in="SourceGraphic"/></filter></defs><path d="M32.091 50.758c-.878.689-2.382.253-3.355-.979-.974-1.229-1.052-2.786-.173-3.476L78.554 7.037c.879-.69 2.381-.253 3.355.977.975 1.231 1.052 2.788.172 3.478l-49.99 39.266z" fill="red" filter="url(#v)"/><path d="M30.624 49.712a.996.996 0 11-1.237-1.564l49.48-39.047c.433-.343 1.063-.455 1.403-.022.476.446.454 1.061.021 1.403l-49.667 39.23z" fill="#fee"/><linearGradient x1="415.87" y1="-48" x2="419.625" y2="-48" id="w" gradientUnits="userSpaceOnUse" gradientTransform="scale(1 -1) rotate(-51.671 194.894 365.408)"><stop offset=".06" stop-color="#a8aea4"/><stop offset=".161" stop-color="#1e251d"/><stop offset=".282" stop-color="#4f564f"/><stop offset=".287" stop-color="#474e48"/><stop offset=".308" stop-color="#262e2b"/><stop offset=".327" stop-color="#111a19"/><stop offset=".339" stop-color="#0a1312"/><stop offset=".386" stop-color="#0a1312"/><stop offset=".44" stop-color="#4a5050"/><stop offset=".497" stop-color="#a7a898"/><stop offset=".55" stop-color="#636b6b"/><stop offset=".627" stop-color="#8f9491"/><stop offset=".896" stop-color="#4a524f"/><stop offset="1" stop-color="#b3bab3"/></linearGradient><path d="M9.805 67.367a.112.112 0 01-.156-.019l-2.19-2.771a.11.11 0 01.018-.155l.283-.223a.11.11 0 01.155.017l2.192 2.771a.11.11 0 01-.019.155l-.283.225z" fill="url(#w)"/><linearGradient x1="415.704" y1="-35.16" x2="419.93" y2="-35.16" id="x" gradientUnits="userSpaceOnUse" gradientTransform="scale(1 -1) rotate(-51.671 194.894 365.408)"><stop offset=".161" stop-color="#a8aea4"/><stop offset=".211" stop-color="#1e251d"/><stop offset=".282" stop-color="#4f564f"/><stop offset=".285" stop-color="#555b55"/><stop offset=".322" stop-color="#8f958f"/><stop offset=".355" stop-color="#bec2bd"/><stop offset=".385" stop-color="#dfe2de"/><stop offset=".41" stop-color="#f4f6f3"/><stop offset=".426" stop-color="#fbfdfa"/><stop offset=".735" stop-color="#fbfdfa"/><stop offset=".782" stop-color="#3c454a"/><stop offset=".846" stop-color="#454e53"/><stop offset="1" stop-color="#b3bab3"/></linearGradient><path d="M12.275 65.578l-.258.411-1.687 1.351c-.24.189-.425.02-.615-.221l-1.924-2.434c-.19-.239-.313-.459-.072-.648l1.73-1.387.446.006 17.581-13.898a.558.558 0 01.779.092l1.649 2.086c.189.24.149.59-.091.779L12.275 65.578z" fill="url(#x)"/><g fill="none" stroke="#454e53" stroke-width=".092"><path d="M8.942 63.059l2.612 3.302M8.768 63.196l2.613 3.305M8.594 63.334l2.613 3.305M8.421 63.472l2.612 3.303M8.246 63.61l2.612 3.303M8.072 63.747l2.612 3.303"/></g><linearGradient x1="415.025" y1="-22.33" x2="420.272" y2="-22.33" id="y" gradientUnits="userSpaceOnUse" gradientTransform="scale(1 -1) rotate(-51.671 194.894 365.408)"><stop offset="0" stop-color="#1e251d"/><stop offset=".305" stop-color="#0a1312"/><stop offset=".554" stop-color="#262624"/><stop offset=".789" stop-color="#101616"/><stop offset=".876" stop-color="#232927"/><stop offset=".983" stop-color="#0a1312"/></linearGradient><path d="M27.192 48.7l3.071-2.193s.319-.253.617.124c.297.378.977 3.797-.022 4.68l-1.217.964.086.167-1.265.952s.031-.471-.266-.848c-.298-.379-.507-.896-.507-.896s-.338-.485-.742-.165c-.406.32-.659.001-.842-.229-.183-.232-.586-.386-.799-.356-.215.027-.722-1.031-.722-1.031l1.773-1.449.835.28z" fill="url(#y)"/><ellipse cx="27.587" cy="48.153" rx=".757" ry=".462" transform="rotate(-38.362 27.584 48.153)" fill="#252e2d"/><path d="M25.424 49.709c-.212.168-.466.2-.568.07-.101-.126-.011-.366.201-.535.211-.167.466-.198.567-.07.102.127.013.366-.2.535z" fill="#8c917d" stroke="#a7a898" stroke-width=".185"/><linearGradient x1="415.508" y1="-21.743" x2="415.508" y2="-22.781" id="z" gradientUnits="userSpaceOnUse" gradientTransform="scale(1 -1) rotate(-51.671 194.894 365.408)"><stop offset="0" stop-color="#666"/><stop offset=".5" stop-color="#d6d6d6"/><stop offset="1" stop-color="#696969"/></linearGradient><path d="M27.784 48.339c-.23.182-.509.212-.623.067l-.213-.272.839-.646.206.26c.114.144.021.407-.209.591z" fill="url(#z)"/><path d="M27.178 48.213c-.091.001-.162-.027-.205-.08-.106-.135-.013-.386.206-.559a.667.667 0 01.384-.155c.091-.001.162.027.206.082.105.134.013.383-.207.558a.667.667 0 01-.384.154z" fill="#9c9c9c"/><path d="M27.563 47.397c.094-.001.175.026.225.09.114.143.02.406-.21.589a.685.685 0 01-.399.159c-.094.001-.175-.028-.225-.091-.112-.144-.019-.407.211-.59a.688.688 0 01.398-.157m.001.044a.655.655 0 00-.37.149.685.685 0 00-.22.29c-.034.095-.027.178.018.236.048.062.128.072.186.071a.633.633 0 00.371-.148.68.68 0 00.22-.288c.034-.096.028-.181-.017-.236-.049-.062-.13-.075-.188-.074z" fill="#666"/><path d="M28.022 47.708c.061.034.443-.268.573-.098.154.201-.036.665-.4.951-.363.289-.616.15-.619.279-.005.189.573.038.743-.096.377-.292.902-1.002.603-1.357-.299-.354-.926-.011-.975.118-.049.127.01.17.075.203z" fill="#61635c" stroke="#3b413d" stroke-width=".185"/><path d="M62.367 46.314c.917.706.858 2.321-.133 3.606-.99 1.285-2.535 1.757-3.452 1.05L6.645 10.826c-.916-.707-.857-2.32.133-3.607.99-1.286 2.536-1.755 3.453-1.05l52.136 40.145z" fill="#00c9ff" filter="url(#v)"/><path d="M60.897 47.556a1.013 1.013 0 01-1.234 1.604L8.245 9.634A1.012 1.012 0 019.48 8.029l51.417 39.527z" fill="#eefbff"/><path fill="url(#A)" d="M61.708 51.031l-1.085-.835 1.829-2.377 1.085.835z"/><path fill="url(#B)" d="M60.464 50.22l-1.108-.852 1.826-2.369 1.106.852z"/><path fill="url(#C)" d="M59.361 49.378l-.262-.2 1.969-2.555.258.201z"/><path fill="url(#D)" d="M60.652 50.372l-.199-.153 1.966-2.556.201.155z"/><path d="M83.7 63.928a.11.11 0 01.021.157s.144.251-.898 1.604c-.909 1.181-1.29 1.235-1.29 1.235a.11.11 0 01-.156.021l-.501-.388a.11.11 0 01-.02-.158l2.186-2.84a.116.116 0 01.159-.021l.499.39z" fill="url(#E)"/><path d="M83.149 63.26c.246.188.594.336.392.598l-2.039 2.646c-.201.262-.482.366-.729.177l-4.337-3.321-.095-.453-18.372-14.15c-.246-.189 1.172-.707 1.833-.768l.988.715c.459.154 1.315.182 1.877.05.77-.183.891-.604 1.202-.363l19.28 14.869z" opacity=".4" enable-background="new"/><path d="M78.706 59.745l.474.146 4.291 3.285c.246.188.116.427-.085.688l-2.039 2.647c-.2.261-.396.448-.643.258l-4.336-3.319-.094-.455-18.373-14.148c-.247-.188 1.171-.708 1.831-.768l.988.714c.46.153 1.316.184 1.879.05.77-.182 1.025-.841 1.338-.602l14.769 11.504z" fill="url(#F)"/><path d="M65.031 49.108s.057.588.503.929c.444.345 1.116.411 1.116.411l-1.619-1.34z" fill="url(#G)"/><path d="M66.317 49.744c.11.083.145.226.075.317h0c-.07.09-.217.095-.328.008l-.6-.463c-.11-.084-.144-.228-.075-.316h0c.069-.091.216-.096.326-.01l.602.464z" fill="#c93233" stroke="#5c1c0d" stroke-width=".185"/><path d="M63.935 49.174c.288.223.356.622.148.89-.206.269-.609.306-.896.084-.29-.224-.356-.621-.15-.89.207-.269.609-.306.898-.084z" fill="#101518"/><circle cx="63.375" cy="49.518" r=".211" fill="url(#H)"/><circle cx="63.746" cy="49.85" r=".164" fill="url(#I)"/></svg>